<svg width="148" height="20" viewBox="0 0 148 20" fill="none" xmlns="http://www.w3.org/2000/svg">
<path d="M33.1271 4.11017H40.7754V8.72881H33.1271V4.11017ZM38.6992 15V11.3983H44.1441V1.44068H29.7585V11.3983H35.2669V15H28V17.7331H45.9873V15H38.6992Z" fill="white"/>
<path d="M63.528 6.88559H53.1466V3.72881H63.3585V1.03813H49.6297V9.57627H63.528V6.88559ZM65.4983 11.1864H47.4687V13.9195H54.6933V19.9153H58.1255V13.9195H65.4983V11.1864Z" fill="white"/>
<path d="M73.3145 1.31356C70.2001 1.31356 67.7636 3.4322 67.7636 6.31356C67.7636 9.2161 70.2001 11.3347 73.3145 11.3347C76.4501 11.3347 78.8865 9.2161 78.8865 6.31356C78.8865 3.4322 76.4501 1.31356 73.3145 1.31356ZM73.3145 4.2161C74.5645 4.2161 75.5391 4.91525 75.5391 6.31356C75.5391 7.73305 74.5645 8.4322 73.3145 8.4322C72.0857 8.4322 71.1111 7.73305 71.1111 6.31356C71.1111 4.91525 72.0857 4.2161 73.3145 4.2161ZM80.3484 0.0211862V19.9788H83.7806V0.0211862H80.3484ZM67.4247 16.1229C70.8145 16.1229 75.3696 16.0593 79.6069 15.2119L79.3738 12.7754C75.2425 13.3475 70.4755 13.3898 67.0433 13.3898L67.4247 16.1229Z" fill="white"/>
<path d="M104.489 0V20H107.921V0H104.489ZM97.0949 1.33474C94.0441 1.33474 91.7771 4.08898 91.7771 8.53813C91.7771 12.9873 94.0441 15.7415 97.0949 15.7415C100.146 15.7415 102.413 12.9873 102.413 8.53813C102.413 4.08898 100.146 1.33474 97.0949 1.33474ZM97.0949 4.44915C98.3238 4.44915 99.1288 5.74152 99.1288 8.53813C99.1288 11.3347 98.3238 12.6271 97.0949 12.6271C95.8661 12.6271 95.061 11.3347 95.061 8.53813C95.061 5.74152 95.8661 4.44915 97.0949 4.44915Z" fill="white"/>
<path d="M120.78 8.83475C118.979 9.17373 117.369 9.25847 114.89 9.30085V7.75424H120.314V1.14407H111.479V3.83475H116.924V5.23305H111.5V12.0127H113.089C116.775 12.0127 118.852 11.9492 121.098 11.5254L120.78 8.83475ZM113.788 15.8263H124.148V19.9364H127.581V13.1356H113.788V15.8263ZM124.148 0.0635585V2.69068H121.352V5.38136H124.148V6.99152H121.352V9.6822H124.148V12.3305H127.581V0.0635585H124.148Z" fill="white"/>
<path d="M138.045 1.46186H134.592V3.98305C134.592 7.8178 133.469 11.6737 129.867 13.3051L131.986 16.0381C134.104 15 135.503 13.178 136.308 10.8898C137.113 13.0297 138.448 14.7246 140.524 15.6992L142.558 13.0085C139.041 11.4619 138.045 7.83898 138.045 3.98305V1.46186ZM143.723 0.0211862V5.97458H140.354V8.70763H143.723V19.9788H147.155V0.0211862H143.723Z" fill="white"/>
<g style="mix-blend-mode:multiply">
<rect width="20" height="5" rx="2.5" fill="#FF808F"/>
</g>
<g style="mix-blend-mode:multiply">
<rect y="20" width="20" height="5" rx="2.5" transform="rotate(-90 0 20)" fill="#FF808F"/>
</g>
<g style="mix-blend-mode:multiply">
<rect x="20" y="20" width="20" height="5" rx="2.5" transform="rotate(-180 20 20)" fill="#FF808F"/>
</g>
<g style="mix-blend-mode:multiply">
<rect x="20" width="20" height="5" rx="2.5" transform="rotate(90 20 0)" fill="#FF808F"/>
</g>
<circle cx="2.5" cy="2.5" r="0.625" fill="white"/>
<circle cx="17.5" cy="2.5" r="0.625" fill="white"/>
<circle cx="17.5" cy="17.5" r="0.625" fill="white"/>
<circle cx="2.5" cy="17.5" r="0.625" fill="white"/>
</svg>
